<svg xmlns="http://www.w3.org/2000/svg">
  <path d="M.5 12a8 8 0 0 0 8 8h16.4v7.8a5 5 0 0 0 5 5h19a1 1 0 0 1 1 1V39H33.5a8 8 0 0 0-8 8v4a8 8 0 0 0 8 8h14.9v13H33.5a8 8 0 0 0-8 8v4a8 8 0 0 0 8 8h40a8 8 0 0 0 8-8v-4a8 8 0 0 0-8-8H52.4V59h21.1a8 8 0 0 0 8-8v-4a8 8 0 0 0-8-8H53.9v-5.2a5 5 0 0 0-5-5h-19a1 1 0 0 1-1-1V20h18.6a8 8 0 0 0 8-8V8a8 8 0 0 0-8-8h-39a8 8 0 0 0-8 8v4zm77 68v4a4 4 0 0 1-4 4h-40a4 4 0 0 1-4-4v-4a4 4 0 0 1 4-4h40a4 4 0 0 1 4 4zm0-33v4a4 4 0 0 1-4 4h-40a4 4 0 0 1-4-4v-4a4 4 0 0 1 4-4h40a4 4 0 0 1 4 4zM4.5 8a4 4 0 0 1 4-4h39a4 4 0 0 1 4 4v4a4 4 0 0 1-4 4h-39a4 4 0 0 1-4-4V8z" fill="#000" fill-rule="nonzero"/>
</svg>
