<svg width="105" height="105" xmlns="http://www.w3.org/2000/svg">
  <defs>
    <radialGradient cx="0%" cy="0%" fx="0%" fy="0%" r="100%" gradientTransform="scale(1 .99942)" id="a">
      <stop stop-color="#FFF" offset="0%"/>
      <stop stop-color="#B8D6F0" offset="100%"/>
    </radialGradient>
  </defs>
  <g fill-rule="nonzero" fill="none">
    <path d="M52.509.014c28.981 0 52.476 23.503 52.476 52.495 0 28.993-23.495 52.496-52.476 52.496-28.982 0-52.476-23.503-52.476-52.496C.033 23.517 23.527.014 52.509.014z" fill="#A6C9EF"/>
    <path d="M21.418 10.756L51.731 52.42 13.02 18.57a52.398 52.398 0 0 1 8.398-7.814zM7.332 26.573L51.637 52.42v.066l-.13-.013L2.718 37.14a51.712 51.712 0 0 1 4.615-10.567zm44.305 25.913l.281.028-.522-52.03a52.43 52.43 0 0 1 11.94 1.106L52.012 52.234c-.19 1.093.602 3.264.937 4.583l2.624 11.691 7.813 34.922c-3.5.74-7.128 1.132-10.848 1.132-.294 0-.587-.007-.88-.012l.26-51.755c-2.753-.096-6.926.47-9.934 1.029l-10.029 1.122L.738 58.407a52.485 52.485 0 0 1-.335-5.892c0-1.894.104-3.763.302-5.605l37.061 4.2 13.741 1.363.13.04v-.027zm-.281.308h.281v.094L7.583 78.882A51.718 51.718 0 0 1 2.89 68.428l48.467-15.634zM13.316 86.8L51.73 52.888l-29.978 41.63a52.394 52.394 0 0 1-8.437-7.718zM83.1 94.68a52.078 52.078 0 0 1-10.07 5.704L52.2 53.074 83.1 94.68zm14.774-16.454a52.203 52.203 0 0 1-6.83 9.373l-38.75-34.711 45.58 25.338zm-45.58-25.525l52.116 5.06a51.693 51.693 0 0 1-2.47 11.426L52.293 52.701zm0-.187L102 36.034a51.702 51.702 0 0 1 2.433 11.503l-52.14 4.977zm0-.094l38.403-35.362a52.228 52.228 0 0 1 7 9.438L52.294 52.42zm30.904-41.998l-30.999 41.81L73.14 4.696a52.088 52.088 0 0 1 10.058 5.727zm-32.31 37.322c.264 1.124 1.194 3.38.843 4.489v-.187L30.399 5.386A51.796 51.796 0 0 1 41.286 1.69l7.352 35.299 2.25 10.756zm0 9.82l-2.344 11.13-7.221 34.655a51.804 51.804 0 0 1-10.89-3.689l21.298-46.585c.379 1.057-.584 3.403-.844 4.49z" fill="#F6F8DB"/>
    <path d="M21.067 10.334l30.312 41.664-38.71-33.85a52.398 52.398 0 0 1 8.398-7.814zM6.98 26.151l44.305 25.847v.066l-.13-.013-48.79-15.333A51.712 51.712 0 0 1 6.98 26.15zm44.305 25.913l.282.028-.523-52.03a52.43 52.43 0 0 1 11.94 1.106L51.66 51.812c-.19 1.093.603 3.264.937 4.583l2.625 11.691 7.812 34.922c-3.5.74-7.128 1.132-10.848 1.132-.294 0-.587-.007-.88-.012l.26-51.755c-2.753-.096-6.926.47-9.934 1.029l-10.028 1.122L.386 57.985a52.485 52.485 0 0 1-.335-5.892c0-1.894.104-3.763.302-5.605l37.061 4.2 13.742 1.363.13.04v-.027zm-.28.308h.28v.094L7.232 78.46a51.718 51.718 0 0 1-4.695-10.454l48.467-15.634zm-38.04 34.006l38.414-33.912-29.977 41.63a52.394 52.394 0 0 1-8.438-7.718zm69.783 7.88a52.078 52.078 0 0 1-10.07 5.704l-20.83-47.31 30.9 41.606zm14.775-16.454a52.203 52.203 0 0 1-6.83 9.373L51.94 52.466l45.582 25.338zM51.94 52.28l52.117 5.06a51.693 51.693 0 0 1-2.47 11.427L51.941 52.279zm0-.187l49.709-16.48a51.702 51.702 0 0 1 2.432 11.503l-52.14 4.977zm0-.094l38.404-35.362a52.228 52.228 0 0 1 7 9.438L51.942 51.998zM82.846 10L51.848 51.81l20.94-47.537A52.088 52.088 0 0 1 82.846 10zm-32.31 37.322c.265 1.124 1.194 3.38.843 4.489v-.187L30.048 4.964a51.796 51.796 0 0 1 10.886-3.697l7.352 35.299 2.25 10.756zm0 9.82l-2.343 11.13-7.222 34.655a51.804 51.804 0 0 1-10.89-3.689L51.38 52.653c.38 1.057-.584 3.403-.843 4.49z" fill="url(#a)" transform="translate(.352 .422)"/>
  </g>
</svg>
